<?xml version="1.0" encoding="UTF-8"?>
<svg width="210mm" height="297mm" version="1.1" viewBox="0 0 210 297" xmlns="http://www.w3.org/2000/svg" xmlns:cc="http://creativecommons.org/ns#" xmlns:dc="http://purl.org/dc/elements/1.1/" xmlns:rdf="http://www.w3.org/1999/02/22-rdf-syntax-ns#">
 <metadata>
  <rdf:RDF>
   <cc:Work rdf:about="">
    <dc:format>image/svg+xml</dc:format>
    <dc:type rdf:resource="http://purl.org/dc/dcmitype/StillImage"/>
    <dc:title/>
   </cc:Work>
  </rdf:RDF>
 </metadata>
 <g transform="matrix(.35278 0 0 -.35278 -319.61 331.8)" fill="#fff">
  <g transform="translate(485.91 20.31)">
   <g transform="translate(826 480.83)">
    <path d="m46 38-46 15v27l82-27v-29l-82-24v24z" fill="#4d4d4d"/>
   </g>
   <g transform="translate(825 424.33)">
    <path d="m46 38-46 15v27l82-27v-29l-82-24v24z" fill="#fff"/>
   </g>
  </g>
  <g transform="translate(1158.2 412.88)">
   <path d="m138.66 195.86c-10.185 2.7734-21.144 4.16-32.878 4.16-20.149 0-38.282-4.3045-54.401-12.913-15.936-8.4258-28.483-20.24-37.641-35.443-9.1584-15.203-13.738-32.421-13.738-51.654 0-19.233 4.5792-36.451 13.738-51.654 9.1584-15.203 21.706-27.109 37.641-35.718 16.119-8.4258 34.253-12.639 54.401-12.639 11.734 0 22.694 1.3867 32.878 4.16v49.654c-9.0115-5.8366-19.055-8.7549-30.131-8.7549-10.441 0-19.782 2.2896-28.025 6.8688-8.0594 4.5792-14.379 10.99-18.958 19.233-4.396 8.4258-6.5941 18.042-6.5941 28.849 0 10.807 2.198 20.332 6.5941 28.574 4.5792 8.4258 10.899 14.928 18.958 19.507 8.2426 4.5792 17.584 6.8688 28.025 6.8688 11.076 0 21.119-2.9183 30.131-8.7549zm-279-164.01m203.54 119.13-38.121-119.13h-43.056l-19.231 63.648-20.252-63.648h-43.056l-38.121 119.13h41.354l20.762-67.732 21.953 67.732h36.929l20.762-68.583 21.953 68.583z" fill="#fff" fill-rule="evenodd"/>
  </g>
 </g>
</svg>
