<?xml version="1.0" encoding="UTF-8" standalone="no"?>
<svg
   xmlns:dc="http://purl.org/dc/elements/1.1/"
   xmlns:cc="http://creativecommons.org/ns#"
   xmlns:rdf="http://www.w3.org/1999/02/22-rdf-syntax-ns#"
   xmlns:svg="http://www.w3.org/2000/svg"
   xmlns="http://www.w3.org/2000/svg"
   xmlns:sodipodi="http://sodipodi.sourceforge.net/DTD/sodipodi-0.dtd"
   xmlns:inkscape="http://www.inkscape.org/namespaces/inkscape"
   width="210mm"
   height="297mm"
   version="1.1"
   viewBox="0 0 210 297"
   id="svg20"
   sodipodi:docname="WC3 Logo.svg"
   inkscape:version="1.0.2 (e86c870879, 2021-01-15)">
  <defs
     id="defs24" />
  <sodipodi:namedview
     pagecolor="#ffffff"
     bordercolor="#666666"
     borderopacity="1"
     objecttolerance="10"
     gridtolerance="10"
     guidetolerance="10"
     inkscape:pageopacity="0"
     inkscape:pageshadow="2"
     inkscape:window-width="751"
     inkscape:window-height="480"
     id="namedview22"
     showgrid="false"
     inkscape:zoom="0.48462402"
     inkscape:cx="396.85039"
     inkscape:cy="561.25984"
     inkscape:window-x="0"
     inkscape:window-y="21"
     inkscape:window-maximized="0"
     inkscape:current-layer="svg20" />
  <metadata
     id="metadata2">
    <rdf:RDF>
      <cc:Work
         rdf:about="">
        <dc:format>image/svg+xml</dc:format>
        <dc:type
           rdf:resource="http://purl.org/dc/dcmitype/StillImage" />
        <dc:title />
      </cc:Work>
    </rdf:RDF>
  </metadata>
  <g
     transform="matrix(0.35278,0,0,-0.35278,-319.61,331.8)"
     fill="#ffffff"
     id="g18">
    <g
       transform="translate(485.91,20.31)"
       id="g12">
      <g
         transform="translate(826,480.83)"
         id="g6">
        <path
           d="M 46,38 0,53 V 80 L 82,53 V 24 L 0,0 v 24 z"
           fill="#4d4d4d"
           id="path4"
           style="fill:#ff0000" />
      </g>
      <g
         transform="translate(825,424.33)"
         id="g10">
        <path
           d="M 46,38 0,53 V 80 L 82,53 V 24 L 0,0 v 24 z"
           fill="#ffffff"
           id="path8" />
      </g>
    </g>
    <g
       transform="translate(1158.2,412.88)"
       id="g16">
      <path
         d="m 138.66,195.86 c -10.185,2.7734 -21.144,4.16 -32.878,4.16 -20.149,0 -38.282,-4.3045 -54.401,-12.913 C 35.445,178.6812 22.898,166.867 13.74,151.664 4.5816,136.461 0.002,119.243 0.002,100.01 0.002,80.777 4.5812,63.559 13.74,48.356 22.8984,33.153 35.446,21.247 51.381,12.638 67.5,4.2122 85.634,-0.001 105.782,-0.001 c 11.734,0 22.694,1.3867 32.878,4.16 v 49.654 c -9.0115,-5.8366 -19.055,-8.7549 -30.131,-8.7549 -10.441,0 -19.782,2.2896 -28.025,6.8688 -8.0594,4.5792 -14.379,10.99 -18.958,19.233 -4.396,8.4258 -6.5941,18.042 -6.5941,28.849 0,10.807 2.198,20.332 6.5941,28.574 4.5792,8.4258 10.899,14.928 18.958,19.507 8.2426,4.5792 17.584,6.8688 28.025,6.8688 11.076,0 21.119,-2.9183 30.131,-8.7549 z m -279,-164.01 M 63.2,150.98 25.079,31.85 H -17.977 L -37.208,95.498 -57.46,31.85 h -43.056 l -38.121,119.13 h 41.354 l 20.762,-67.732 21.953,67.732 h 36.929 L 3.123,82.397 25.076,150.98 Z"
         fill="#ffffff"
         fill-rule="evenodd"
         id="path14" />
    </g>
  </g>
</svg>
